<svg xmlns="http://www.w3.org/2000/svg" xml:space="preserve" width="800" height="800" viewBox="0 0 229.202 229.202"><path d="M56.334 132.905a7.472 7.472 0 0 0 3.348.794c2.752 0 5.4-1.52 6.715-4.148L91.33 79.687a7.501 7.501 0 0 0-13.417-6.71L52.98 122.842a7.5 7.5 0 0 0 3.354 10.063zM90.334 132.905a7.472 7.472 0 0 0 3.348.794c2.752 0 5.4-1.52 6.715-4.148l24.934-49.864a7.501 7.501 0 0 0-13.417-6.71L86.98 122.842a7.5 7.5 0 0 0 3.354 10.063zM124.334 132.905a7.472 7.472 0 0 0 3.348.794c2.752 0 5.4-1.52 6.715-4.148l24.934-49.864a7.501 7.501 0 0 0-13.417-6.71l-24.934 49.865a7.5 7.5 0 0 0 3.354 10.063z"/><path d="M229.199 150.922v-.336l-.041-20.493c.01-.221.006-.44.012-.66.016-.539.023-1.078.02-1.617a53.025 53.025 0 0 0-.027-1.19c-.006-.158-.004-.314-.012-.472a8.781 8.781 0 0 0-.029-.541c-.006-.084-.016-.168-.021-.252a43.433 43.433 0 0 0-.235-2.515c-.057-.485-.121-.97-.195-1.452-.064-.416-.139-.83-.215-1.244-.068-.369-.131-.738-.207-1.104a43.444 43.444 0 0 0-.568-2.384 43.98 43.98 0 0 0-3.205-8.315 133.603 133.603 0 0 0-9.352-17.846c-20.668-33.106-54.084-54.879-91.875-60.679a133.24 133.24 0 0 0-7.615-.945c-4.23-.402-8.508-.607-12.818-.607-24.701 0-48.885 6.947-69.936 20.091a71.222 71.222 0 0 0-2.57 1.694c-.207.142-.416.284-.621.429a70.83 70.83 0 0 0-2.351 1.72c-.201.154-.399.314-.6.473a69.93 69.93 0 0 0-1.723 1.395c-.27.225-.543.449-.809.678a67.951 67.951 0 0 0-1.896 1.695 78.067 78.067 0 0 0-2.053 1.99 70.702 70.702 0 0 0-1.609 1.676c-.303.327-.607.653-.904.985-.371.414-.734.832-1.096 1.254-.232.273-.459.551-.688.828a66.757 66.757 0 0 0-1.73 2.183 68.094 68.094 0 0 0-1.621 2.212 67.87 67.87 0 0 0-2.803 4.35c-.226.384-.457.765-.678 1.153a70.13 70.13 0 0 0-1.197 2.209c-.166.317-.326.637-.486.956a66.408 66.408 0 0 0-1.184 2.465c-.049.106-.094.214-.141.321a68.074 68.074 0 0 0-1.117 2.652c-.066.166-.135.333-.199.5-.379.976-.74 1.961-1.078 2.957-.025.075-.049.15-.072.227a70.588 70.588 0 0 0-.99 3.197c-.281 1-.537 2.012-.777 3.029-.025.104-.057.205-.08.309-.031.133-.051.266-.082.398-.184.818-.35 1.638-.506 2.458a74.043 74.043 0 0 0-.293 1.706 69.737 69.737 0 0 0-.914 10.17c-.004.071-.012.142-.012.214v2.308l.008 21.87c0 .109.004.219.008.328a69.64 69.64 0 0 0 10.6 36.701c12.857 20.589 35.039 32.881 59.34 32.881 13.053 0 25.83-3.67 36.951-10.614 8.727-5.451 18.75-8.333 28.988-8.333a55.414 55.414 0 0 1 25.324 6.154c2.869 1.724 10.91 5.38 14.225 6.142a44.14 44.14 0 0 0 9.916 1.136c20.521 0 38.088-13.98 42.721-34.004a44.008 44.008 0 0 0 1.117-9.703c.004-.11.006-.22.004-.33l-.003-.458zM15.024 106.937a55.644 55.644 0 0 1 1.2-10.705c.172-.819.369-1.631.578-2.438.068-.263.131-.529.203-.791.279-1.015.58-2.021.916-3.016l.033-.093c.328-.966.688-1.919 1.068-2.861.096-.24.199-.476.301-.714a51.475 51.475 0 0 1 1.321-2.916c.432-.879.883-1.75 1.361-2.605.027-.049.053-.099.08-.146a54.38 54.38 0 0 1 3.613-5.583l.135-.179a55.42 55.42 0 0 1 1.912-2.424c.063-.074.123-.15.188-.225a54.588 54.588 0 0 1 4.594-4.814l.176-.156a55.174 55.174 0 0 1 4.755-3.891c.236-.172.469-.348.707-.518a55.765 55.765 0 0 1 2.662-1.78c18.664-11.653 40.1-17.813 61.99-17.813 40.787 0 78.016 20.626 99.586 55.178a118.408 118.408 0 0 1 8.389 16.045c.068.159.143.316.223.471a28.875 28.875 0 0 1 2.193 5.633c.021.085.039.173.063.258.109.424.213.848.303 1.271.311 1.472.506 2.998.586 4.558l.004.044.008.217c.037.906.039 1.759-.002 2.594a7.009 7.009 0 0 0-.004.205 29.061 29.061 0 0 1-.697 4.896c-3.049 13.177-14.605 22.379-28.104 22.379h-.002c-2.186 0-4.385-.252-6.529-.748-1.746-.436-8.322-3.436-9.766-4.31a7.826 7.826 0 0 0-.666-.395 70.471 70.471 0 0 0-32.506-7.98c-13.049 0-25.82 3.669-36.934 10.611-8.734 5.454-18.764 8.337-29.004 8.337-19.092 0-36.52-9.655-46.617-25.827-5.324-8.525-8.15-18.123-8.338-27.918v-.521c-.004-.321.004-.644.006-.965.005-.122.012-.243.015-.365zm170.335 73.48c-2.184 0-4.383-.253-6.533-.75-1.746-.436-8.314-3.432-9.758-4.306a7.538 7.538 0 0 0-.672-.396 70.454 70.454 0 0 0-32.502-7.979c-13.051 0-25.822 3.669-36.936 10.611-8.734 5.453-18.764 8.336-29.004 8.336-19.092 0-36.518-9.654-46.617-25.828-.141-.225-.271-.453-.41-.68 12.68 11.549 29.287 18.107 47.027 18.107 13.053 0 25.83-3.671 36.951-10.615 8.727-5.451 18.75-8.333 28.986-8.333a55.418 55.418 0 0 1 25.328 6.155c2.863 1.722 10.904 5.377 14.225 6.143a44.077 44.077 0 0 0 9.912 1.135h.004c9.828-.001 18.975-3.215 26.352-8.757a28.69 28.69 0 0 1-26.353 17.157z"/></svg>