<svg xmlns="http://www.w3.org/2000/svg" xml:space="preserve" width="800" height="800" viewBox="0 0 512 512"><path d="M444.646 213.446c-5.882-75.607-56.681-140.806-128.734-164.803C310.097 20.9 285.446 0 256 0s-54.096 20.898-59.913 48.641C124.034 72.635 73.236 137.835 67.354 213.445c-29.059 7.233-50.658 33.549-50.658 64.816 0 32.028 22.667 58.851 52.798 65.298L95.13 471.737C99.795 495.066 120.451 512 144.244 512h223.512c23.792 0 44.448-16.934 49.114-40.264l25.636-128.177c30.131-6.447 52.798-33.27 52.798-65.298 0-31.267-21.598-57.582-50.658-64.815zM256 33.391c15.058 0 27.352 12.024 27.805 26.975a16.598 16.598 0 0 0-.007 1.982c-.597 14.82-12.835 26.695-27.798 26.695-14.965 0-27.202-11.875-27.797-26.696a16.39 16.39 0 0 0-.007-1.982c.452-14.949 12.746-26.974 27.804-26.974zM198.861 83.15c8.84 22.95 31.112 39.285 57.139 39.285s48.298-16.334 57.138-39.283c57.229 22.518 96.412 77.269 98.584 139.56l-11.703 11.703c-6.527 6.526-17.085 6.526-23.611 0l-19.561-19.56c-19.528-19.531-51.306-19.528-70.833 0l-19.561 19.56c-6.51 6.509-17.102 6.509-23.611 0l-19.561-19.56c-19.528-19.531-51.306-19.528-70.833 0l-19.561 19.56c-6.51 6.509-17.102 6.509-23.611 0l-9.075-9.075c1.148-63.381 40.628-119.359 98.66-142.19zm-54.617 395.459c-7.93 0-14.817-5.644-16.372-13.421l-24.028-120.144h64.699L181.9 478.609h-37.656zm152.299 0h-81.085l-13.357-133.565h107.798l-13.356 133.565zm87.585-13.422c-1.555 7.777-8.44 13.422-16.372 13.422h-37.655l13.357-133.565h64.699l-24.029 120.143zm44.394-153.535H83.479c-18.412 0-33.391-14.979-33.391-33.391 0-15.09 10.063-27.866 23.827-31.989 12.708 12.707 23.508 26.424 47.171 26.424 13.379 0 25.956-5.21 35.417-14.671l19.561-19.56c6.51-6.51 17.102-6.508 23.611 0l19.561 19.56c19.528 19.531 51.305 19.528 70.833 0l19.561-19.56c6.51-6.51 17.102-6.508 23.611 0l19.561 19.56c19.528 19.531 51.305 19.528 70.833 0l12.314-12.314c14.849 3.386 25.967 16.69 25.967 32.55-.003 18.412-14.982 33.391-33.394 33.391z"/></svg>