<svg xmlns="http://www.w3.org/2000/svg" xml:space="preserve" width="800" height="800" viewBox="0 0 512 512"><path d="M456.047 61.196a6.295 6.295 0 0 0-2.84-3.888L363.103 2.413a16.527 16.527 0 0 0-24.594 9.967L307.77 130.991h-54.154c-7.895-47.087-48.934-83.084-98.231-83.084-54.925 0-99.609 44.684-99.609 99.608 0 49.297 35.997 90.336 83.084 98.232v167.312c0 28.222 14.518 53.107 36.469 67.613-5.455 2.7-9.214 8.306-9.214 14.803 0 9.127 7.398 16.525 16.525 16.525h171.866c9.127 0 16.525-7.398 16.525-16.525 0-6.498-3.76-12.104-9.214-14.803 21.951-14.506 36.47-39.39 36.47-67.613V147.515c0-9.127-7.398-16.525-16.525-16.525h-39.849l23.006-88.773 71.095 43.314a6.29 6.29 0 0 0 8.644-2.099l10.65-17.479a6.297 6.297 0 0 0 .739-4.757zM253.615 164.04h45.59L271.49 270.988h-99.58v-25.241c41.709-6.994 74.711-39.997 81.705-81.707zm-81.706 47.957V164.04h47.957c-6.012 23.448-24.509 41.945-47.957 47.957zm-16.525-81.007c-9.127 0-16.525 7.398-16.525 16.525v64.482c-28.734-7.368-50.036-33.483-50.036-64.482 0-36.702 29.859-66.56 66.561-66.56 30.998 0 57.114 21.301 64.481 50.035h-64.481zm209.853 282.069h-.002c0 26.44-21.511 47.952-47.953 47.952h-97.421c-26.441 0-47.952-21.511-47.952-47.952V304.037h91.016l-26.539 102.406a6.288 6.288 0 0 0 4.511 7.667l19.815 5.135a6.29 6.29 0 0 0 7.667-4.511l28.688-110.697h68.17v109.022zm-.002-249.019v106.948H305.63l27.716-106.948h31.889z"/></svg>