<svg xmlns="http://www.w3.org/2000/svg" width="87" height="62" fill="none"><path fill-rule="evenodd" d="M2.175.918C.652.918.09 2.923 0 3.926 3.664 25.861 4.915 38.27 6.525 60.487c-.29-.034 2.175 2.708 4.893 0 0-8.424-.544-14.456-.544-14.456 4.05-3.118 21.327-8.607 34.25-12.712l.012-.004c3.032-.963 5.824-1.85 8.149-2.612l.815 2.406c21.749-8.424 33.167-18.051 32.895-21.06-.272-3.008-13.55-7.346-34.526-8.123.272-2.106-.816-4.121-2.719-3.91C30.912 2.1 10.442 1.25 4.064.985a74.427 74.427 0 0 0-1.89-.068Zm8.7 37.892c-.95-11.905-1.812-18.5-4.079-30.085 0 0 3.172 7.933 4.078 13.84.969 6.306 0 16.245 0 16.245Zm11.272-16.513 5.377-1.049-.507-3.177-5.377 1.05-.773-4.857 6.024-1.175-.509-3.19-9.483 1.85 3.02 18.958 3.46-.675-1.232-7.735Zm19.474-4.175c.352 2.204.152 4.008-.599 5.411-.744 1.402-1.952 2.266-3.624 2.592-1.666.325-3.07-.021-4.214-1.039-1.144-1.025-1.897-2.624-2.257-4.795l-.447-2.81c-.36-2.257-.168-4.11.576-5.558.742-1.456 1.953-2.347 3.632-2.675 1.652-.322 3.053.048 4.203 1.111 1.15 1.056 1.91 2.707 2.283 4.954l.447 2.81Zm-3.446-2.166c-.236-1.482-.602-2.547-1.098-3.195-.496-.648-1.145-.893-1.947-.737-.795.155-1.328.62-1.597 1.394-.27.766-.299 1.862-.086 3.286l.466 2.923c.229 1.436.591 2.46 1.088 3.068.495.602 1.147.824 1.956.666.782-.153 1.31-.597 1.586-1.334.274-.743.303-1.816.087-3.216l-.455-2.855Zm14.24 4.465c.655-1.223.83-2.796.523-4.717l-.39-2.45c-.324-1.958-.988-3.398-1.99-4.318-1.003-.927-2.224-1.25-3.664-.969-1.464.286-2.52 1.063-3.167 2.332-.648 1.263-.816 2.878-.502 4.845l.39 2.45c.314 1.893.97 3.287 1.968 4.18.997.888 2.221 1.19 3.673.907 1.458-.285 2.511-1.038 3.16-2.26Zm-3.439-9.391c.433.565.752 1.493.958 2.785l.396 2.489c.189 1.22.163 2.156-.076 2.804-.24.642-.7 1.03-1.382 1.162-.705.138-1.274-.055-1.705-.58-.433-.53-.75-1.422-.95-2.675l-.405-2.548c-.186-1.242-.16-2.197.075-2.865.235-.675.699-1.08 1.392-1.215.7-.136 1.265.078 1.697.643Zm8.328 12.28L55.29 10.673l3.02-.589c1.333-.26 2.47.001 3.408.785.945.782 1.555 1.988 1.83 3.617l.327 2.048c.264 1.66.075 3.043-.569 4.147-.639 1.098-1.654 1.782-3.045 2.054l-2.957.577Zm.631-10.961 1.338 8.394.69-.135c.768-.15 1.274-.478 1.517-.985.242-.513.283-1.32.123-2.423l-.35-2.196c-.188-1.18-.468-1.973-.84-2.378-.372-.41-.919-.557-1.639-.44l-.839.163Zm14.51 5.527-4.079.796 2.76-8.598-.209-1.301-6.383 1.245.294 1.844 4.079-.796-2.799 8.566.212 1.332 6.418-1.252-.293-1.836Z" clip-rule="evenodd"/></svg>