<svg xmlns="http://www.w3.org/2000/svg" xml:space="preserve" width="800" height="800" viewBox="0 0 32 32"><path d="M16.9 18.1c-.2.2-.4.5-.6.7-1.1-1-2.1-2-3.1-3.1.3-.2.5-.4.7-.6 2.2-2.2 2-5.3-.7-8s-5.8-3-8-.7c-2.3 2.3-2.7 6.5-.9 9.3 3 4.5 7.5 9 12 12 1.2.8 2.6 1.2 4.1 1.2 1.9 0 3.9-.7 5.2-2 2.2-2.2 2-5.3-.7-8-2.7-2.8-5.7-3.1-8-.8zM18 3.1c-.6 0-1 .4-1 1s.4 1 1 1c4.9 0 8.9 4 8.9 8.9 0 .6.4 1 1 1s1-.4 1-1C29 7.9 24.1 3.1 18 3.1z"/><path d="M22 13.7c0 .6.4 1 1 1s1-.4 1-1c0-3.1-2.7-5.7-6-5.7-.6 0-1 .4-1 1s.4 1 1 1c2.2 0 4 1.7 4 3.7z"/></svg>