<svg xmlns="http://www.w3.org/2000/svg" width="800" height="800" viewBox="-2.98 0 30.957 30.957"><g fill-rule="evenodd" data-name="Frame 17"><path d="M22.973 4.5a21.625 21.625 0 0 0-20.948.431l10.381 24.03Zm1.863.731a1.887 1.887 0 0 0-.8-2.428 23.623 23.623 0 0 0-23.145.472 1.889 1.889 0 0 0-.732 2.392L10.57 29.75a2 2 0 0 0 3.672 0Z" data-name="Path 117"/><path d="M12.513 8a17.677 17.677 0 0 0-9.468 2.847L1.982 9.153A19.674 19.674 0 0 1 12.513 6a19.674 19.674 0 0 1 10.532 3.153l-1.063 1.694A17.677 17.677 0 0 0 12.513 8Z" data-name="Path 118"/><path d="M9.513 18a5 5 0 0 0-5-5v-2a7 7 0 0 1 4.631 12.25l-1.324-1.5A4.986 4.986 0 0 0 9.513 18Z" data-name="Path 119"/><path d="M18.513 14a3 3 0 0 0-1.125 5.782l-.75 1.854a5 5 0 0 1 3.75-9.272l-.75 1.854A2.988 2.988 0 0 0 18.513 14Z" data-name="Path 120"/><path d="M14.513 26a4 4 0 0 0-3.326 1.777l-1.661-1.113A6 6 0 0 1 14.513 24Z" data-name="Path 121"/></g></svg>